# xmcd
#
# Track frame offsets: 
#        150
#        10103
#        19007
#        29305
#        39100
#        48157
#        63973
#        73033
#        78185
#        83837
#        92836
#        101235
#        113568
#        123360
#
# Disc length: 1857 seconds
#
# Revision: 0
# Processed by: cddbd v1.5.2PL0 Copyright (c) Steve Scherf et al.
# Submitted via: ExactAudioCopyFreeDBPlugin 1.0
#
DISCID=9f073f0e
DTITLE=Eureka California - Roadrunners
DYEAR=2018
DGENRE=Indierock
TTITLE0=MKUltra
TTITLE1=Perfect Grammar
TTITLE2=Threads
TTITLE3=Time After Time After Time After Time
TTITLE4=Over It
TTITLE5=I Cant Look In Yr Direction
TTITLE6=Howard Hughes At The Sands
TTITLE7=Buffalo Bills 1990-1993
TTITLE8=JJT
TTITLE9=SWDs
TTITLE10=Gila Monster
TTITLE11=Telephone Tone
TTITLE12=How Long Has This Been Going On?
TTITLE13=Mexican Coke
EXTD=
EXTT0=
EXTT1=
EXTT2=
EXTT3=
EXTT4=
EXTT5=
EXTT6=
EXTT7=
EXTT8=
EXTT9=
EXTT10=
EXTT11=
EXTT12=
EXTT13=
PLAYORDER=
